# xmcd
#
# Track frame offsets:
#	150
#	49725
#	64107
#	102072
#	131700
#	153535
#	179635
#	211850
#	242825
#	255560
#
# Disc length: 3798
#
# Revision: 1
# Processed by: cddbd v1.5.1PL0 Copyright (c) Steve Scherf et al.
# Submitted via: CDex 1.51
# Normalized: r0:DSETVAR1,TDELIM( - )
#
DISCID=8c0ed40a
DTITLE=Various Artist - BLUE NOTE PRESENTS BLUE NOTE standards
DYEAR=1995
DGENRE=Jazz
TTITLE0=CANNONBALL ADDERLEY - AUTUMN LEAVES
TTITLE1=THELONIOUS MONK - 'ROUND ABOUT MIDNIGHT
TTITLE2=DEXTER GORDON - MANHA DE CARNAVAL
TTITLE3=SONNY CLARK - SOFTLY AS IN A MORNING SUNRIZE
TTITLE4=JACKIE McLEAN - LET'S FACE THE MUSIC AND DANCE
TTITLE5=ART BLAKEY - COME RAIN OR COME SHINE
TTITLE6=McCOY TYNER - I DIDN'T KNOW WHAT TIME IT WAS
TTITLE7=DONALD BYRD - LOVER COME BACK TO ME
TTITLE8=KENNY CLARKE-FRANCY BORLAND and CO. - YOU'D BE SO NICE TO COME HOME TO
TTITLE9=SONNY ROLLINS - THE SURREY WITH THE FRINGE ON TOP
EXTD=YEAR: 1995
EXTT0=
EXTT1=
EXTT2=
EXTT3=
EXTT4=
EXTT5=
EXTT6=
EXTT7=
EXTT8=
EXTT9=
PLAYORDER=
